<?xml version="1.0" encoding="utf-8"?>
<!-- Generator: Adobe Illustrator 21.0.0, SVG Export Plug-In . SVG Version: 6.00 Build 0)  -->
<svg version="1.1" id="Capa_1" xmlns="http://www.w3.org/2000/svg" xmlns:xlink="http://www.w3.org/1999/xlink" x="0px" y="0px"
	 viewBox="0 0 72.3 72.3" style="enable-background:new 0 0 72.3 72.3;" xml:space="preserve">
<style type="text/css">
	.st0{fill:#E7ECED;}
	.st1{fill:#556080;}
	.pulsing {
		animation:pl1 2s infinite;
		filter: drop-shadow( 0px 0px 0px rgba(255, 255, 255, 0.7));
		padding: 10rem;
	}
	@keyframes pl1 {
		100% {filter: drop-shadow( 0px 0px 7px rgba(255, 255, 0, 0))}
	}
</style>
<path class="st0" d="M32.9,42.5l-3.4,1.8c-0.2,0.1-0.4,0.3-0.6,0.4c2,1.7,4.5,2.6,7.3,2.6c2.8,0,5.3-1,7.2-2.6
	c-0.2-0.2-0.4-0.3-0.6-0.4l-3.6-1.8c-0.5-0.2-0.8-0.7-0.8-1.2V40c0.1-0.1,0.2-0.3,0.3-0.4c0.5-0.7,0.8-1.4,1.1-2.2
	c0.5-0.1,0.8-0.6,0.8-1.1v-1.5c0-0.3-0.1-0.6-0.4-0.8v-2.2c0,0,0.5-3.4-4.2-3.4s-4.2,3.4-4.2,3.4v2.2c-0.2,0.2-0.4,0.5-0.4,0.8v1.5
	c0,0.4,0.2,0.8,0.5,0.9c0.4,1.7,1.4,2.8,1.4,2.8v1.4C33.6,41.9,33.3,42.3,32.9,42.5z"/>
<g class="pulsing">
	<path class="st1" d="M36.4,24.9c-6.2-0.1-11.3,4.8-11.4,11c0,3.5,1.5,6.7,4,8.8c0.2-0.1,0.3-0.3,0.6-0.4l3.4-1.8
		c0.4-0.3,0.7-0.7,0.7-1.2V40c0,0-1-1.2-1.4-2.8c-0.3-0.2-0.5-0.6-0.5-0.9v-1.5c0-0.3,0.1-0.6,0.4-0.8v-2.2c0,0-0.5-3.4,4.2-3.4
		s4.2,3.4,4.2,3.4v2.2c0.2,0.2,0.4,0.5,0.4,0.8v1.5c0,0.5-0.3,0.9-0.8,1.1c-0.3,0.8-0.6,1.6-1.1,2.2c-0.1,0.2-0.3,0.3-0.3,0.4v1.4
		c0,0.5,0.3,1,0.8,1.2l3.6,1.8c0.2,0.1,0.4,0.3,0.6,0.4c2.4-2,4-5.1,4-8.4C47.6,30.1,42.7,25,36.4,24.9z"/>
</g>
</svg>
